<?xml version="1.0" encoding="UTF-8"?>
<!DOCTYPE svg PUBLIC "-//W3C//DTD SVG 1.1//EN" "http://www.w3.org/Graphics/SVG/1.1/DTD/svg11.dtd">
<svg xmlns="http://www.w3.org/2000/svg" version="1.1" width="256px" height="256px" style="shape-rendering:geometricPrecision; text-rendering:geometricPrecision; image-rendering:optimizeQuality; fill-rule:evenodd; clip-rule:evenodd" xmlns:xlink="http://www.w3.org/1999/xlink">
<g><path style="opacity:1" fill="#2fc937" d="M -0.5,-0.5 C 84.8333,-0.5 170.167,-0.5 255.5,-0.5C 255.5,84.8333 255.5,170.167 255.5,255.5C 170.167,255.5 84.8333,255.5 -0.5,255.5C -0.5,170.167 -0.5,84.8333 -0.5,-0.5 Z"/></g>
<g><path style="opacity:1" fill="#36c23d" d="M 181.5,71.5 C 178.221,70.5078 174.888,70.3412 171.5,71C 173.378,72.5429 174.878,74.3762 176,76.5C 176.829,97.0042 176.663,117.337 175.5,137.5C 175.83,117.326 175.497,97.3264 174.5,77.5C 172.393,76.5318 170.059,76.1984 167.5,76.5C 162.438,75.9877 158.105,77.321 154.5,80.5C 152.105,81.3635 149.771,81.3635 147.5,80.5C 149.76,78.2347 152.094,76.2347 154.5,74.5C 161.153,73.0054 167.487,70.6721 173.5,67.5C 173.833,67.5 174.167,67.5 174.5,67.5C 176.167,67.5 177.833,67.5 179.5,67.5C 179.5,65.5 179.5,63.5 179.5,61.5C 177.265,61.2053 175.265,61.5386 173.5,62.5C 171.265,62.2053 169.265,62.5386 167.5,63.5C 159.604,64.2438 152.271,66.5772 145.5,70.5C 144.854,68.8439 144.187,67.1772 143.5,65.5C 143.833,64.8333 144.167,64.1667 144.5,63.5C 146.015,67.7153 148.681,68.5486 152.5,66C 151.269,64.8173 151.269,63.6507 152.5,62.5C 153.328,63.4147 154.328,64.0814 155.5,64.5C 158.669,63.0412 162.002,62.2078 165.5,62C 164.692,61.6924 164.025,61.1924 163.5,60.5C 165.958,59.8757 167.624,58.3757 168.5,56C 170.833,55.3333 173.167,55.3333 175.5,56C 174.377,57.0437 173.044,57.7104 171.5,58C 174.356,59.153 177.356,59.9863 180.5,60.5C 181.892,64.1955 182.225,67.8622 181.5,71.5 Z"/></g>
<g><path style="opacity:1" fill="#a5eeab" d="M 75.5,61.5 C 77.7354,61.2053 79.7354,61.5386 81.5,62.5C 79.8333,62.5 78.1667,62.5 76.5,62.5C 76.5,63.8333 76.5,65.1667 76.5,66.5C 76.1667,66.5 75.8333,66.5 75.5,66.5C 75.5,64.8333 75.5,63.1667 75.5,61.5 Z"/></g>
<g><path style="opacity:1" fill="#d1f9d4" d="M 173.5,62.5 C 175.167,62.5 176.833,62.5 178.5,62.5C 178.5,63.8333 178.5,65.1667 178.5,66.5C 177.5,66.5 176.5,66.5 175.5,66.5C 177.137,64.8763 176.803,63.8763 174.5,63.5C 172.218,64.2234 169.884,64.5567 167.5,64.5C 167.5,64.1667 167.5,63.8333 167.5,63.5C 169.265,62.5386 171.265,62.2053 173.5,62.5 Z"/></g>
<g><path style="opacity:1" fill="#94df9b" d="M 173.5,62.5 C 175.265,61.5386 177.265,61.2053 179.5,61.5C 179.5,63.5 179.5,65.5 179.5,67.5C 177.833,67.5 176.167,67.5 174.5,67.5C 174.5,66.8333 174.833,66.5 175.5,66.5C 176.5,66.5 177.5,66.5 178.5,66.5C 178.5,65.1667 178.5,63.8333 178.5,62.5C 176.833,62.5 175.167,62.5 173.5,62.5 Z"/></g>
<g><path style="opacity:1" fill="#61c266" d="M 95.5,65.5 C 96.8333,65.5 98.1667,65.5 99.5,65.5C 102.47,66.6532 105.137,68.3199 107.5,70.5C 105.883,69.962 104.216,69.6287 102.5,69.5C 100.167,68.1667 97.8333,66.8333 95.5,65.5 Z"/></g>
<g><path style="opacity:1" fill="#cdf9cf" d="M 81.5,62.5 C 83.6976,62.8751 85.6976,63.5418 87.5,64.5C 84.9621,64.4928 82.4621,64.1595 80,63.5C 79.1667,63.8333 78.3333,64.1667 77.5,64.5C 77.6667,64.8333 77.8333,65.1667 78,65.5C 82.737,66.3058 87.237,67.6391 91.5,69.5C 86.3503,68.6233 81.3503,67.6233 76.5,66.5C 76.5,65.1667 76.5,63.8333 76.5,62.5C 78.1667,62.5 79.8333,62.5 81.5,62.5 Z"/></g>
<g><path style="opacity:1" fill="#e8fee8" d="M 87.5,64.5 C 90.1667,64.8333 92.8333,65.1667 95.5,65.5C 97.8333,66.8333 100.167,68.1667 102.5,69.5C 103.091,70.1515 103.757,70.8182 104.5,71.5C 103.833,71.8333 103.167,72.1667 102.5,72.5C 100.547,71.8444 98.5466,71.5111 96.5,71.5C 94.597,71.2041 92.9303,70.5375 91.5,69.5C 87.237,67.6391 82.737,66.3058 78,65.5C 77.8333,65.1667 77.6667,64.8333 77.5,64.5C 78.3333,64.1667 79.1667,63.8333 80,63.5C 82.4621,64.1595 84.9621,64.4928 87.5,64.5 Z"/></g>
<g><path style="opacity:1" fill="#55c057" d="M 107.5,70.5 C 110.481,70.1824 112.815,71.1824 114.5,73.5C 115.551,74.2223 116.218,75.2223 116.5,76.5C 115.167,76.1667 113.833,75.8333 112.5,75.5C 111.103,73.6207 109.437,71.9541 107.5,70.5 Z"/></g>
<g><path style="opacity:1" fill="#2ec235" d="M 181.5,71.5 C 181.5,72.1667 181.5,72.8333 181.5,73.5C 179.51,96.4761 178.843,119.809 179.5,143.5C 177.396,143.799 175.396,143.466 173.5,142.5C 174.95,141.15 175.617,139.484 175.5,137.5C 176.663,117.337 176.829,97.0042 176,76.5C 174.878,74.3762 173.378,72.5429 171.5,71C 174.888,70.3412 178.221,70.5078 181.5,71.5 Z"/></g>
<g><path style="opacity:1" fill="#d6fbd5" d="M 102.5,69.5 C 104.216,69.6287 105.883,69.962 107.5,70.5C 109.437,71.9541 111.103,73.6207 112.5,75.5C 110.302,74.9856 108.302,73.9856 106.5,72.5C 105.614,73.325 105.281,74.325 105.5,75.5C 102.088,74.9251 99.0884,73.5918 96.5,71.5C 98.5466,71.5111 100.547,71.8444 102.5,72.5C 103.167,72.1667 103.833,71.8333 104.5,71.5C 103.757,70.8182 103.091,70.1515 102.5,69.5 Z"/></g>
<g><path style="opacity:1" fill="#57be5d" d="M 167.5,63.5 C 167.5,63.8333 167.5,64.1667 167.5,64.5C 156.714,66.3942 147.047,70.7275 138.5,77.5C 138.369,76.7611 138.536,76.0944 139,75.5C 141.352,73.9697 143.519,72.3031 145.5,70.5C 152.271,66.5772 159.604,64.2438 167.5,63.5 Z"/></g>
<g><path style="opacity:1" fill="#c1f3be" d="M 157.5,71.5 C 156.694,72.7281 155.694,73.7281 154.5,74.5C 150.856,75.6551 147.523,77.3218 144.5,79.5C 147.988,75.5832 152.321,72.9166 157.5,71.5 Z"/></g>
<g><path style="opacity:1" fill="#57bd5b" d="M 173.5,67.5 C 167.487,70.6721 161.153,73.0054 154.5,74.5C 155.694,73.7281 156.694,72.7281 157.5,71.5C 162.787,69.9596 168.12,68.6263 173.5,67.5 Z"/></g>
<g><path style="opacity:1" fill="#55bd55" d="M 75.5,66.5 C 75.8333,66.5 76.1667,66.5 76.5,66.5C 81.3503,67.6233 86.3503,68.6233 91.5,69.5C 92.9303,70.5375 94.597,71.2041 96.5,71.5C 99.0884,73.5918 102.088,74.9251 105.5,75.5C 105.833,76.1667 106.167,76.8333 106.5,77.5C 96.2909,72.8673 85.9576,69.2006 75.5,66.5 Z"/></g>
<g><path style="opacity:1" fill="#cef9cd" d="M 105.5,75.5 C 110.015,75.3586 113.015,77.3586 114.5,81.5C 112.184,80.1944 109.85,78.8611 107.5,77.5C 107.167,77.5 106.833,77.5 106.5,77.5C 106.167,76.8333 105.833,76.1667 105.5,75.5 Z"/></g>
<g><path style="opacity:1" fill="#e6fde8" d="M 175.5,66.5 C 174.833,66.5 174.5,66.8333 174.5,67.5C 174.167,67.5 173.833,67.5 173.5,67.5C 168.12,68.6263 162.787,69.9596 157.5,71.5C 152.321,72.9166 147.988,75.5832 144.5,79.5C 141.732,81.0872 139.065,82.9205 136.5,85C 135.748,85.6708 135.414,86.5041 135.5,87.5C 134.167,88.5 132.833,89.5 131.5,90.5C 129.685,91.6298 127.685,92.2964 125.5,92.5C 122.14,88.4729 118.473,84.8062 114.5,81.5C 113.015,77.3586 110.015,75.3586 105.5,75.5C 105.281,74.325 105.614,73.325 106.5,72.5C 108.302,73.9856 110.302,74.9856 112.5,75.5C 113.833,75.8333 115.167,76.1667 116.5,76.5C 116.833,77.5 117.5,78.1667 118.5,78.5C 119.585,80.5869 121.251,81.9202 123.5,82.5C 124.167,83.5 124.833,84.5 125.5,85.5C 126.777,87.914 128.443,88.0807 130.5,86C 132.141,84.871 133.141,83.371 133.5,81.5C 135.142,80.197 136.809,78.8637 138.5,77.5C 147.047,70.7275 156.714,66.3942 167.5,64.5C 169.884,64.5567 172.218,64.2234 174.5,63.5C 176.803,63.8763 177.137,64.8763 175.5,66.5 Z"/></g>
<g><path style="opacity:1" fill="#74d07a" d="M 118.5,78.5 C 120.749,79.0798 122.415,80.4131 123.5,82.5C 121.251,81.9202 119.585,80.5869 118.5,78.5 Z"/></g>
<g><path style="opacity:1" fill="#39c33e" d="M 145.5,70.5 C 143.519,72.3031 141.352,73.9697 139,75.5C 138.536,76.0944 138.369,76.7611 138.5,77.5C 136.809,78.8637 135.142,80.197 133.5,81.5C 132.038,82.4577 130.705,83.6244 129.5,85C 128.207,85.49 126.873,85.6567 125.5,85.5C 124.833,84.5 124.167,83.5 123.5,82.5C 122.415,80.4131 120.749,79.0798 118.5,78.5C 117.5,78.1667 116.833,77.5 116.5,76.5C 116.218,75.2223 115.551,74.2223 114.5,73.5C 115.833,73.5 117.167,73.5 118.5,73.5C 118.33,74.8221 118.663,75.9887 119.5,77C 121.351,77.8372 123.184,78.6705 125,79.5C 126.706,78.6921 127.539,77.3588 127.5,75.5C 129.833,75.5 132.167,75.5 134.5,75.5C 134.227,73.0418 135.227,71.3751 137.5,70.5C 140.096,71.2129 142.763,71.2129 145.5,70.5 Z"/></g>
<g><path style="opacity:1" fill="#50ba54" d="M 167.5,76.5 C 167.5,76.8333 167.5,77.1667 167.5,77.5C 163.231,78.6992 158.897,79.6992 154.5,80.5C 158.105,77.321 162.438,75.9877 167.5,76.5 Z"/></g>
<g><path style="opacity:1" fill="#fbfefc" d="M 73.5,151.5 C 73.5,151.833 73.5,152.167 73.5,152.5C 72.0209,155.143 72.3542,157.643 74.5,160C 73.9056,160.464 73.2389,160.631 72.5,160.5C 70.901,160.768 69.5676,160.434 68.5,159.5C 68.3334,133.165 68.5,106.831 69,80.5C 69.6667,79.1667 70.3333,79.1667 71,80.5C 71.1667,84 71.3333,87.5 71.5,91C 70.4926,109.16 70.3259,127.326 71,145.5C 73.0386,146.978 73.8719,148.978 73.5,151.5 Z"/></g>
<g><path style="opacity:1" fill="#fcfdfd" d="M 186.5,159.5 C 185.399,160.598 184.066,160.765 182.5,160C 181.748,159.329 181.414,158.496 181.5,157.5C 183.703,156.948 184.536,155.615 184,153.5C 182.231,151.46 180.065,149.96 177.5,149C 179.134,148.506 180.801,148.34 182.5,148.5C 182.5,147.5 182.5,146.5 182.5,145.5C 183.497,123.673 183.831,101.673 183.5,79.5C 184.5,79.5 185.5,79.5 186.5,79.5C 186.5,106.167 186.5,132.833 186.5,159.5 Z"/></g>
<g><path style="opacity:1" fill="#cffed2" d="M 182.5,76.5 C 185.01,76.0535 187.01,76.7202 188.5,78.5C 188.167,78.5 187.833,78.5 187.5,78.5C 185.958,77.6993 184.292,77.366 182.5,77.5C 182.5,100.167 182.5,122.833 182.5,145.5C 182.167,145.5 181.833,145.5 181.5,145.5C 181.169,122.327 181.502,99.3273 182.5,76.5 Z"/></g>
<g><path style="opacity:1" fill="#6ec471" d="M 144.5,79.5 C 142.12,82.8805 139.12,85.5472 135.5,87.5C 135.414,86.5041 135.748,85.6708 136.5,85C 139.065,82.9205 141.732,81.0872 144.5,79.5 Z"/></g>
<g><path style="opacity:1" fill="#49be4c" d="M 154.5,74.5 C 152.094,76.2347 149.76,78.2347 147.5,80.5C 149.771,81.3635 152.105,81.3635 154.5,80.5C 153.306,81.2719 152.306,82.2719 151.5,83.5C 149.033,83.7549 147.033,84.7549 145.5,86.5C 143.216,86.9752 141.216,87.9752 139.5,89.5C 137.517,89.8432 136.183,89.1765 135.5,87.5C 139.12,85.5472 142.12,82.8805 144.5,79.5C 147.523,77.3218 150.856,75.6551 154.5,74.5 Z"/></g>
<g><path style="opacity:1" fill="#f2fdf4" d="M 167.5,135.5 C 168.489,130.025 168.822,124.358 168.5,118.5C 164.658,118.239 160.991,118.906 157.5,120.5C 157.167,120.167 156.833,119.833 156.5,119.5C 159.98,117.121 163.647,115.121 167.5,113.5C 168.479,110.375 168.813,107.042 168.5,103.5C 165.505,103.294 162.838,103.96 160.5,105.5C 160.167,105.5 159.833,105.5 159.5,105.5C 156.824,106.008 154.157,106.175 151.5,106C 153.24,104.483 154.906,102.983 156.5,101.5C 159.152,101.59 161.485,100.924 163.5,99.5C 164.568,98.5655 165.901,98.2322 167.5,98.5C 167.5,93.5 167.5,88.5 167.5,83.5C 166.282,82.8386 164.949,82.1719 163.5,81.5C 165.966,79.0317 168.966,78.0317 172.5,78.5C 172.5,98.5 172.5,118.5 172.5,138.5C 170.473,138.662 168.473,138.495 166.5,138C 167.252,137.329 167.586,136.496 167.5,135.5 Z"/></g>
<g><path style="opacity:1" fill="#9fe3a1" d="M 133.5,81.5 C 133.141,83.371 132.141,84.871 130.5,86C 128.443,88.0807 126.777,87.914 125.5,85.5C 126.873,85.6567 128.207,85.49 129.5,85C 130.705,83.6244 132.038,82.4577 133.5,81.5 Z"/></g>
<g><path style="opacity:1" fill="#4dbd4f" d="M 90.5,77.5 C 96.4441,77.8762 102.111,79.2095 107.5,81.5C 108.167,81.1667 108.833,80.8333 109.5,80.5C 108.388,79.7348 107.721,78.7348 107.5,77.5C 109.85,78.8611 112.184,80.1944 114.5,81.5C 118.473,84.8062 122.14,88.4729 125.5,92.5C 125.908,93.6431 126.575,94.6431 127.5,95.5C 129.071,94.0246 130.405,92.358 131.5,90.5C 132.833,89.5 134.167,88.5 135.5,87.5C 136.183,89.1765 137.517,89.8432 139.5,89.5C 139.5,89.8333 139.5,90.1667 139.5,90.5C 137.251,91.0798 135.585,92.4131 134.5,94.5C 133.833,94.5 133.5,94.8333 133.5,95.5C 131.548,96.7847 129.882,98.4514 128.5,100.5C 127.833,100.5 127.167,100.5 126.5,100.5C 124.228,96.5586 121.228,93.2253 117.5,90.5C 113.263,87.2521 108.596,84.9188 103.5,83.5C 99.2128,81.51 94.8794,79.51 90.5,77.5 Z"/></g>
<g><path style="opacity:1" fill="#cdfbd3" d="M 151.5,83.5 C 149.967,85.2451 147.967,86.2451 145.5,86.5C 147.033,84.7549 149.033,83.7549 151.5,83.5 Z"/></g>
<g><path style="opacity:1" fill="#4dbb50" d="M 91.5,83.5 C 94.5178,85.3999 97.8512,86.7333 101.5,87.5C 101.833,87.5 102.167,87.5 102.5,87.5C 102.973,88.9063 103.973,89.573 105.5,89.5C 106.5,89.8333 107.167,90.5 107.5,91.5C 101.498,89.829 95.4979,88.1623 89.5,86.5C 89.5,89.8333 89.5,93.1667 89.5,96.5C 95.4685,96.9868 100.469,99.3202 104.5,103.5C 104.167,103.5 103.833,103.5 103.5,103.5C 103.167,103.5 102.833,103.5 102.5,103.5C 98.3506,100.776 93.6839,99.1089 88.5,98.5C 87.5128,93.6946 87.1795,88.6946 87.5,83.5C 88.8333,83.5 90.1667,83.5 91.5,83.5 Z"/></g>
<g><path style="opacity:1" fill="#dffce0" d="M 103.5,83.5 C 108.596,84.9188 113.263,87.2521 117.5,90.5C 121.228,93.2253 124.228,96.5586 126.5,100.5C 126.5,100.833 126.5,101.167 126.5,101.5C 126.5,106.167 126.5,110.833 126.5,115.5C 125.673,110.349 125.173,105.016 125,99.5C 123.309,96.6411 120.809,95.3077 117.5,95.5C 116.833,95.5 116.167,95.5 115.5,95.5C 113.079,93.7622 110.412,92.4289 107.5,91.5C 107.167,90.5 106.5,89.8333 105.5,89.5C 105.5,89.1667 105.5,88.8333 105.5,88.5C 106.873,88.6567 108.207,88.49 109.5,88C 107.369,86.5295 105.369,85.0295 103.5,83.5 Z"/></g>
<g><path style="opacity:1" fill="#abeaac" d="M 102.5,87.5 C 103.609,87.5569 104.609,87.8902 105.5,88.5C 105.5,88.8333 105.5,89.1667 105.5,89.5C 103.973,89.573 102.973,88.9063 102.5,87.5 Z"/></g>
<g><path style="opacity:1" fill="#5bc460" d="M 155.5,87.5 C 152.935,89.8978 149.935,91.5645 146.5,92.5C 146.833,91.8333 147.167,91.1667 147.5,90.5C 148.29,89.5987 149.29,88.9321 150.5,88.5C 152.042,87.6993 153.708,87.366 155.5,87.5 Z"/></g>
<g><path style="opacity:1" fill="#98e199" d="M 147.5,90.5 C 147.167,91.1667 146.833,91.8333 146.5,92.5C 145.833,92.5 145.167,92.5 144.5,92.5C 144.973,91.0937 145.973,90.427 147.5,90.5 Z"/></g>
<g><path style="opacity:1" fill="#50b855" d="M 167.5,83.5 C 167.5,88.5 167.5,93.5 167.5,98.5C 165.901,98.2322 164.568,98.5655 163.5,99.5C 160.848,99.4095 158.515,100.076 156.5,101.5C 154.716,101.893 153.05,102.559 151.5,103.5C 151.414,102.504 151.748,101.671 152.5,101C 156.859,98.6029 161.525,97.1029 166.5,96.5C 166.5,92.8333 166.5,89.1667 166.5,85.5C 162.767,85.87 159.101,86.5367 155.5,87.5C 159.058,85.0648 163.058,83.7315 167.5,83.5 Z"/></g>
<g><path style="opacity:1" fill="#d0fdd3" d="M 131.5,90.5 C 130.405,92.358 129.071,94.0246 127.5,95.5C 126.575,94.6431 125.908,93.6431 125.5,92.5C 127.685,92.2964 129.685,91.6298 131.5,90.5 Z"/></g>
<g><path style="opacity:1" fill="#c8f7ca" d="M 139.5,90.5 C 138.415,92.5869 136.749,93.9202 134.5,94.5C 135.585,92.4131 137.251,91.0798 139.5,90.5 Z"/></g>
<g><path style="opacity:1" fill="#eefef0" d="M 150.5,88.5 C 149.29,88.9321 148.29,89.5987 147.5,90.5C 145.973,90.427 144.973,91.0937 144.5,92.5C 140.564,94.7657 137.231,97.7657 134.5,101.5C 132.564,105.715 131.897,110.381 132.5,115.5C 133.179,117.814 134.512,118.147 136.5,116.5C 137.298,116.957 137.631,117.624 137.5,118.5C 136.167,120.167 134.833,121.833 133.5,123.5C 131.447,124.534 129.78,126.034 128.5,128C 127.552,128.483 126.552,128.649 125.5,128.5C 124.933,125.529 123.933,122.695 122.5,120C 123.825,114.068 123.825,108.234 122.5,102.5C 122.5,101.833 122.167,101.5 121.5,101.5C 120.585,99.2459 119.252,97.2459 117.5,95.5C 120.809,95.3077 123.309,96.6411 125,99.5C 125.173,105.016 125.673,110.349 126.5,115.5C 126.248,118.32 126.748,120.986 128,123.5C 128.49,122.207 128.657,120.873 128.5,119.5C 129.328,113.347 129.828,107.013 130,100.5C 132.172,99.4911 133.338,97.8244 133.5,95.5C 133.5,94.8333 133.833,94.5 134.5,94.5C 136.749,93.9202 138.415,92.5869 139.5,90.5C 139.5,90.1667 139.5,89.8333 139.5,89.5C 141.216,87.9752 143.216,86.9752 145.5,86.5C 147.967,86.2451 149.967,85.2451 151.5,83.5C 154.176,82.9919 156.843,82.8253 159.5,83C 156.041,84.3684 153.041,86.2017 150.5,88.5 Z"/></g>
<g><path style="opacity:1" fill="#33c33a" d="M 151.5,103.5 C 150.833,103.5 150.167,103.5 149.5,103.5C 145.296,104.385 141.296,105.718 137.5,107.5C 138.564,103.711 139.897,100.045 141.5,96.5C 142.5,95.1667 143.5,93.8333 144.5,92.5C 145.167,92.5 145.833,92.5 146.5,92.5C 149.935,91.5645 152.935,89.8978 155.5,87.5C 159.101,86.5367 162.767,85.87 166.5,85.5C 166.5,89.1667 166.5,92.8333 166.5,96.5C 161.525,97.1029 156.859,98.6029 152.5,101C 151.748,101.671 151.414,102.504 151.5,103.5 Z"/></g>
<g><path style="opacity:1" fill="#37c33b" d="M 107.5,91.5 C 110.412,92.4289 113.079,93.7622 115.5,95.5C 116.5,96.8333 117.5,98.1667 118.5,99.5C 120.252,103.227 120.919,107.227 120.5,111.5C 119.5,111.5 118.5,111.5 117.5,111.5C 117.33,110.178 117.663,109.011 118.5,108C 115.522,107.304 112.522,106.804 109.5,106.5C 108.035,105.263 106.368,104.263 104.5,103.5C 100.469,99.3202 95.4685,96.9868 89.5,96.5C 89.5,93.1667 89.5,89.8333 89.5,86.5C 95.4979,88.1623 101.498,89.829 107.5,91.5 Z"/></g>
<g><path style="opacity:1" fill="#c0f5c2" d="M 115.5,95.5 C 116.167,95.5 116.833,95.5 117.5,95.5C 119.252,97.2459 120.585,99.2459 121.5,101.5C 120.5,100.833 119.5,100.167 118.5,99.5C 117.5,98.1667 116.5,96.8333 115.5,95.5 Z"/></g>
<g><path style="opacity:1" fill="#70c774" d="M 144.5,92.5 C 143.5,93.8333 142.5,95.1667 141.5,96.5C 139.167,98.5 136.833,100.5 134.5,102.5C 134.5,102.167 134.5,101.833 134.5,101.5C 137.231,97.7657 140.564,94.7657 144.5,92.5 Z"/></g>
<g><path style="opacity:1" fill="#c0f4c1" d="M 163.5,99.5 C 161.485,100.924 159.152,101.59 156.5,101.5C 158.515,100.076 160.848,99.4095 163.5,99.5 Z"/></g>
<g><path style="opacity:1" fill="#d6f9d8" d="M 88.5,98.5 C 93.6839,99.1089 98.3506,100.776 102.5,103.5C 100.94,103.481 99.4397,103.148 98,102.5C 96.9412,102.63 96.1079,103.13 95.5,104C 97.4319,105.459 99.4319,106.625 101.5,107.5C 98.8915,107.6 96.5582,106.933 94.5,105.5C 93.8333,105.5 93.1667,105.5 92.5,105.5C 91.0813,104.549 89.4147,104.216 87.5,104.5C 87.5,107.5 87.5,110.5 87.5,113.5C 86.3592,110.36 86.1925,107.027 87,103.5C 89.0693,102.736 91.236,102.236 93.5,102C 91.6536,100.97 89.9869,99.8036 88.5,98.5 Z"/></g>
<g><path style="opacity:1" fill="#3ebe44" d="M 141.5,96.5 C 139.897,100.045 138.564,103.711 137.5,107.5C 141.296,105.718 145.296,104.385 149.5,103.5C 146.98,105.263 144.647,107.263 142.5,109.5C 140.938,109.733 139.605,110.4 138.5,111.5C 137.167,111.5 135.833,111.5 134.5,111.5C 134.5,108.5 134.5,105.5 134.5,102.5C 136.833,100.5 139.167,98.5 141.5,96.5 Z"/></g>
<g><path style="opacity:1" fill="#cefcd3" d="M 133.5,95.5 C 133.338,97.8244 132.172,99.4911 130,100.5C 129.828,107.013 129.328,113.347 128.5,119.5C 128.5,113.167 128.5,106.833 128.5,100.5C 129.882,98.4514 131.548,96.7847 133.5,95.5 Z"/></g>
<g><path style="opacity:1" fill="#f4fef5" d="M 72.5,78.5 C 72.1692,101.006 72.5026,123.34 73.5,145.5C 74.8333,146.167 76.1667,146.833 77.5,147.5C 80.0635,148.069 82.2302,149.403 84,151.5C 86.0639,150.409 88.2305,150.242 90.5,151C 94.6961,153.291 99.0295,155.124 103.5,156.5C 103.719,157.675 103.386,158.675 102.5,159.5C 100.382,158.054 98.0488,157.387 95.5,157.5C 88.8564,153.337 81.5231,151.337 73.5,151.5C 73.8719,148.978 73.0386,146.978 71,145.5C 70.3259,127.326 70.4926,109.16 71.5,91C 71.3333,87.5 71.1667,84 71,80.5C 70.3333,79.1667 69.6667,79.1667 69,80.5C 68.5,106.831 68.3334,133.165 68.5,159.5C 67.3365,133.003 67.1698,106.336 68,79.5C 69.3561,78.6198 70.8561,78.2865 72.5,78.5 Z"/></g>
<g><path style="opacity:1" fill="#f2feef" d="M 102.5,103.5 C 102.833,103.5 103.167,103.5 103.5,103.5C 105.002,105.829 104.336,107.163 101.5,107.5C 99.4319,106.625 97.4319,105.459 95.5,104C 96.1079,103.13 96.9412,102.63 98,102.5C 99.4397,103.148 100.94,103.481 102.5,103.5 Z"/></g>
<g><path style="opacity:1" fill="#a5cba9" d="M 126.5,101.5 C 127.167,107.5 127.833,113.5 128.5,119.5C 128.657,120.873 128.49,122.207 128,123.5C 126.748,120.986 126.248,118.32 126.5,115.5C 126.5,110.833 126.5,106.167 126.5,101.5 Z"/></g>
<g><path style="opacity:1" fill="#81d688" d="M 167.5,77.5 C 167.5,77.1667 167.5,76.8333 167.5,76.5C 170.059,76.1984 172.393,76.5318 174.5,77.5C 174.831,98.3401 174.497,119.007 173.5,139.5C 173.5,118.833 173.5,98.1667 173.5,77.5C 171.5,77.5 169.5,77.5 167.5,77.5 Z"/></g>
<g><path style="opacity:1" fill="#f2fef3" d="M 85.5,77.5 C 87.1667,77.5 88.8333,77.5 90.5,77.5C 94.8794,79.51 99.2128,81.51 103.5,83.5C 105.369,85.0295 107.369,86.5295 109.5,88C 108.207,88.49 106.873,88.6567 105.5,88.5C 104.609,87.8902 103.609,87.5569 102.5,87.5C 102.167,87.5 101.833,87.5 101.5,87.5C 98.691,85.1034 95.3576,83.7701 91.5,83.5C 90.1667,83.5 88.8333,83.5 87.5,83.5C 87.1795,88.6946 87.5128,93.6946 88.5,98.5C 89.9869,99.8036 91.6536,100.97 93.5,102C 91.236,102.236 89.0693,102.736 87,103.5C 86.1925,107.027 86.3592,110.36 87.5,113.5C 90.2674,116.853 93.9341,118.353 98.5,118C 99.1258,118.75 99.6258,119.584 100,120.5C 101.011,119.663 102.178,119.33 103.5,119.5C 105.513,121.365 107.846,123.032 110.5,124.5C 108.282,125.057 105.949,125.057 103.5,124.5C 102.791,123.596 101.791,123.263 100.5,123.5C 98.3826,121.345 95.716,120.345 92.5,120.5C 92.1667,120.5 91.8333,120.5 91.5,120.5C 90.0813,119.549 88.4147,119.216 86.5,119.5C 86.1786,125.026 86.5119,130.36 87.5,135.5C 87.8333,135.5 88.1667,135.5 88.5,135.5C 89.2905,136.401 90.2905,137.068 91.5,137.5C 89.3165,139.856 86.6499,140.189 83.5,138.5C 82.5004,118.178 82.167,97.8443 82.5,77.5C 83.5,77.5 84.5,77.5 85.5,77.5 Z"/></g>
<g><path style="opacity:1" fill="#c4f6c4" d="M 91.5,83.5 C 95.3576,83.7701 98.691,85.1034 101.5,87.5C 97.8512,86.7333 94.5178,85.3999 91.5,83.5 Z"/></g>
<g><path style="opacity:1" fill="#6fa675" d="M 126.5,101.5 C 126.5,101.167 126.5,100.833 126.5,100.5C 127.167,100.5 127.833,100.5 128.5,100.5C 128.5,106.833 128.5,113.167 128.5,119.5C 127.833,113.5 127.167,107.5 126.5,101.5 Z"/></g>
<g><path style="opacity:1" fill="#4aba50" d="M 66.5,75.5 C 68.8333,75.5 71.1667,75.5 73.5,75.5C 73.5,75.8333 73.5,76.1667 73.5,76.5C 71.2646,76.2053 69.2646,76.5386 67.5,77.5C 66.8333,77.5 66.5,77.8333 66.5,78.5C 65.5021,105.995 65.1687,133.662 65.5,161.5C 64.3363,133.67 64.1697,105.67 65,77.5C 65.2784,76.5842 65.7784,75.9175 66.5,75.5 Z"/></g>
<g><path style="opacity:1" fill="#dafcdc" d="M 156.5,101.5 C 154.906,102.983 153.24,104.483 151.5,106C 154.157,106.175 156.824,106.008 159.5,105.5C 158.07,106.537 156.403,107.204 154.5,107.5C 153.167,107.833 151.833,108.167 150.5,108.5C 150.631,107.624 150.298,106.957 149.5,106.5C 147.026,107.32 144.693,108.32 142.5,109.5C 144.647,107.263 146.98,105.263 149.5,103.5C 150.167,103.5 150.833,103.5 151.5,103.5C 153.05,102.559 154.716,101.893 156.5,101.5 Z"/></g>
<g><path style="opacity:1" fill="#defedf" d="M 67.5,77.5 C 69.4147,77.2155 71.0813,77.5489 72.5,78.5C 70.8561,78.2865 69.3561,78.6198 68,79.5C 67.1698,106.336 67.3365,133.003 68.5,159.5C 69.5676,160.434 70.901,160.768 72.5,160.5C 72.5,160.833 72.5,161.167 72.5,161.5C 70.5328,161.739 68.6995,161.406 67,160.5C 66.5,133.169 66.3334,105.835 66.5,78.5C 66.5,77.8333 66.8333,77.5 67.5,77.5 Z"/></g>
<g><path style="opacity:1" fill="#4cbf50" d="M 118.5,99.5 C 119.5,100.167 120.5,100.833 121.5,101.5C 121.5,105.167 121.5,108.833 121.5,112.5C 120.5,112.5 119.5,112.5 118.5,112.5C 115.32,110.745 112.32,108.745 109.5,106.5C 112.522,106.804 115.522,107.304 118.5,108C 117.663,109.011 117.33,110.178 117.5,111.5C 118.5,111.5 119.5,111.5 120.5,111.5C 120.919,107.227 120.252,103.227 118.5,99.5 Z"/></g>
<g><path style="opacity:1" fill="#a9e3ae" d="M 134.5,101.5 C 134.5,101.833 134.5,102.167 134.5,102.5C 133.515,106.634 133.182,110.968 133.5,115.5C 133.167,115.5 132.833,115.5 132.5,115.5C 131.897,110.381 132.564,105.715 134.5,101.5 Z"/></g>
<g><path style="opacity:1" fill="#51b557" d="M 134.5,102.5 C 134.5,105.5 134.5,108.5 134.5,111.5C 135.833,111.5 137.167,111.5 138.5,111.5C 137.415,113.587 135.749,114.92 133.5,115.5C 133.182,110.968 133.515,106.634 134.5,102.5 Z"/></g>
<g><path style="opacity:1" fill="#a7e2ac" d="M 167.5,113.5 C 167.5,110.5 167.5,107.5 167.5,104.5C 166.209,104.263 165.209,104.596 164.5,105.5C 164.167,105.5 163.833,105.5 163.5,105.5C 162.5,105.5 161.5,105.5 160.5,105.5C 162.838,103.96 165.505,103.294 168.5,103.5C 168.813,107.042 168.479,110.375 167.5,113.5 Z"/></g>
<g><path style="opacity:1" fill="#9ee2a3" d="M 66.5,78.5 C 66.3334,105.835 66.5,133.169 67,160.5C 68.6995,161.406 70.5328,161.739 72.5,161.5C 73.791,161.263 74.791,161.596 75.5,162.5C 72.0613,162.747 68.728,162.414 65.5,161.5C 65.1687,133.662 65.5021,105.995 66.5,78.5 Z"/></g>
<g><path style="opacity:1" fill="#36c237" d="M 92.5,105.5 C 93.1667,105.5 93.8333,105.5 94.5,105.5C 94.3691,106.376 94.7025,107.043 95.5,107.5C 101.512,109.501 106.846,112.501 111.5,116.5C 112.23,117.712 113.23,118.712 114.5,119.5C 112.604,120.466 110.604,120.799 108.5,120.5C 102.807,115.739 96.1404,113.072 88.5,112.5C 88.5,110.167 88.5,107.833 88.5,105.5C 89.8333,105.5 91.1667,105.5 92.5,105.5 Z"/></g>
<g><path style="opacity:1" fill="#57bd58" d="M 94.5,105.5 C 96.5582,106.933 98.8915,107.6 101.5,107.5C 104.494,110 107.827,112 111.5,113.5C 112.167,114.5 112.833,115.5 113.5,116.5C 112.833,116.5 112.167,116.5 111.5,116.5C 106.846,112.501 101.512,109.501 95.5,107.5C 94.7025,107.043 94.3691,106.376 94.5,105.5 Z"/></g>
<g><path style="opacity:1" fill="#a6e7a7" d="M 154.5,107.5 C 152.434,109.199 150.1,110.532 147.5,111.5C 148.167,110.167 149.167,109.167 150.5,108.5C 151.833,108.167 153.167,107.833 154.5,107.5 Z"/></g>
<g><path style="opacity:1" fill="#f3fef4" d="M 187.5,78.5 C 187.831,105.672 187.498,132.672 186.5,159.5C 186.5,132.833 186.5,106.167 186.5,79.5C 185.5,79.5 184.5,79.5 183.5,79.5C 183.831,101.673 183.497,123.673 182.5,145.5C 182.5,122.833 182.5,100.167 182.5,77.5C 184.292,77.366 185.958,77.6993 187.5,78.5 Z"/></g>
<g><path style="opacity:1" fill="#61ba62" d="M 73.5,77.5 C 74.332,99.6629 74.832,121.996 75,144.5C 78.7933,145.331 82.6266,146.164 86.5,147C 87.056,147.383 87.3893,147.883 87.5,148.5C 84.1933,147.949 80.8599,147.616 77.5,147.5C 76.1667,146.833 74.8333,146.167 73.5,145.5C 73.5,122.833 73.5,100.167 73.5,77.5 Z"/></g>
<g><path style="opacity:1" fill="#62b666" d="M 121.5,101.5 C 122.167,101.5 122.5,101.833 122.5,102.5C 122.666,107.179 122.499,111.845 122,116.5C 120.624,115.295 119.458,113.962 118.5,112.5C 119.5,112.5 120.5,112.5 121.5,112.5C 121.5,108.833 121.5,105.167 121.5,101.5 Z"/></g>
<g><path style="opacity:1" fill="#b7f3b9" d="M 111.5,113.5 C 113.749,114.08 115.415,115.413 116.5,117.5C 115.391,117.443 114.391,117.11 113.5,116.5C 112.833,115.5 112.167,114.5 111.5,113.5 Z"/></g>
<g><path style="opacity:1" fill="#50b855" d="M 92.5,105.5 C 91.1667,105.5 89.8333,105.5 88.5,105.5C 88.5,107.833 88.5,110.167 88.5,112.5C 96.1404,113.072 102.807,115.739 108.5,120.5C 106.883,119.962 105.216,119.629 103.5,119.5C 101.879,117.883 99.8791,116.716 97.5,116C 94.0009,115.697 90.6676,114.864 87.5,113.5C 87.5,110.5 87.5,107.5 87.5,104.5C 89.4147,104.216 91.0813,104.549 92.5,105.5 Z"/></g>
<g><path style="opacity:1" fill="#e2fce4" d="M 150.5,108.5 C 149.167,109.167 148.167,110.167 147.5,111.5C 144.185,113.808 140.851,116.141 137.5,118.5C 137.631,117.624 137.298,116.957 136.5,116.5C 134.512,118.147 133.179,117.814 132.5,115.5C 132.833,115.5 133.167,115.5 133.5,115.5C 135.749,114.92 137.415,113.587 138.5,111.5C 139.605,110.4 140.938,109.733 142.5,109.5C 144.693,108.32 147.026,107.32 149.5,106.5C 150.298,106.957 150.631,107.624 150.5,108.5 Z"/></g>
<g><path style="opacity:1" fill="#d6f8d8" d="M 87.5,113.5 C 90.6676,114.864 94.0009,115.697 97.5,116C 99.8791,116.716 101.879,117.883 103.5,119.5C 102.178,119.33 101.011,119.663 100,120.5C 99.6258,119.584 99.1258,118.75 98.5,118C 93.9341,118.353 90.2674,116.853 87.5,113.5 Z"/></g>
<g><path style="opacity:1" fill="#e0fbe2" d="M 122.5,102.5 C 123.825,108.234 123.825,114.068 122.5,120C 123.933,122.695 124.933,125.529 125.5,128.5C 126.552,128.649 127.552,128.483 128.5,128C 129.78,126.034 131.447,124.534 133.5,123.5C 131.371,126.095 130.038,129.095 129.5,132.5C 128.448,132.649 127.448,132.483 126.5,132C 125.267,129.686 123.933,127.519 122.5,125.5C 122.573,123.973 121.906,122.973 120.5,122.5C 120.573,120.973 119.906,119.973 118.5,119.5C 117.5,119.167 116.833,118.5 116.5,117.5C 115.415,115.413 113.749,114.08 111.5,113.5C 107.827,112 104.494,110 101.5,107.5C 104.336,107.163 105.002,105.829 103.5,103.5C 103.833,103.5 104.167,103.5 104.5,103.5C 106.368,104.263 108.035,105.263 109.5,106.5C 112.32,108.745 115.32,110.745 118.5,112.5C 119.458,113.962 120.624,115.295 122,116.5C 122.499,111.845 122.666,107.179 122.5,102.5 Z"/></g>
<g><path style="opacity:1" fill="#64c16b" d="M 153.5,117.5 C 151.819,119.008 149.819,120.008 147.5,120.5C 148.911,118.461 150.911,117.461 153.5,117.5 Z"/></g>
<g><path style="opacity:1" fill="#3ebd42" d="M 164.5,105.5 C 165.209,104.596 166.209,104.263 167.5,104.5C 167.5,107.5 167.5,110.5 167.5,113.5C 162.776,114.63 158.109,115.964 153.5,117.5C 150.911,117.461 148.911,118.461 147.5,120.5C 143.918,122.12 140.918,124.453 138.5,127.5C 136.246,128.415 134.246,129.748 132.5,131.5C 131.903,131.265 131.57,130.765 131.5,130C 133.085,128.075 134.252,125.909 135,123.5C 139.337,119.599 143.504,115.599 147.5,111.5C 150.1,110.532 152.434,109.199 154.5,107.5C 156.403,107.204 158.07,106.537 159.5,105.5C 159.833,105.5 160.167,105.5 160.5,105.5C 161.5,105.5 162.5,105.5 163.5,105.5C 158.748,107.152 154.414,109.652 150.5,113C 151,113.167 151.5,113.333 152,113.5C 155.344,113.411 158.844,113.245 162.5,113C 164.448,111.561 165.781,109.728 166.5,107.5C 166.253,106.287 165.586,105.62 164.5,105.5 Z"/></g>
<g><path style="opacity:1" fill="#35c539" d="M 163.5,105.5 C 163.833,105.5 164.167,105.5 164.5,105.5C 165.586,105.62 166.253,106.287 166.5,107.5C 165.781,109.728 164.448,111.561 162.5,113C 158.844,113.245 155.344,113.411 152,113.5C 151.5,113.333 151,113.167 150.5,113C 154.414,109.652 158.748,107.152 163.5,105.5 Z"/></g>
<g><path style="opacity:1" fill="#d5fed4" d="M 67.5,77.5 C 69.2646,76.5386 71.2646,76.2053 73.5,76.5C 73.5,76.8333 73.5,77.1667 73.5,77.5C 73.5,100.167 73.5,122.833 73.5,145.5C 72.5026,123.34 72.1692,101.006 72.5,78.5C 71.0813,77.5489 69.4147,77.2155 67.5,77.5 Z"/></g>
<g><path style="opacity:1" fill="#b8efb7" d="M 92.5,121.5 C 92.5,121.167 92.5,120.833 92.5,120.5C 95.716,120.345 98.3826,121.345 100.5,123.5C 97.8877,122.629 95.221,121.963 92.5,121.5 Z"/></g>
<g><path style="opacity:1" fill="#96e096" d="M 118.5,119.5 C 119.906,119.973 120.573,120.973 120.5,122.5C 119.094,122.027 118.427,121.027 118.5,119.5 Z"/></g>
<g><path style="opacity:1" fill="#dcfbdf" d="M 167.5,113.5 C 163.647,115.121 159.98,117.121 156.5,119.5C 156.833,119.833 157.167,120.167 157.5,120.5C 160.991,118.906 164.658,118.239 168.5,118.5C 168.822,124.358 168.489,130.025 167.5,135.5C 167.5,130.167 167.5,124.833 167.5,119.5C 165.214,119.595 163.214,120.262 161.5,121.5C 161.167,121.5 160.833,121.5 160.5,121.5C 159.127,121.343 157.793,121.51 156.5,122C 154.569,122.902 152.903,124.069 151.5,125.5C 144.977,128.076 139.643,132.076 135.5,137.5C 134.833,137.833 134.167,138.167 133.5,138.5C 133.869,136.007 133.203,135.34 131.5,136.5C 131.5,135.833 131.5,135.167 131.5,134.5C 134.167,132.5 136.5,130.167 138.5,127.5C 140.918,124.453 143.918,122.12 147.5,120.5C 149.819,120.008 151.819,119.008 153.5,117.5C 158.109,115.964 162.776,114.63 167.5,113.5 Z"/></g>
<g><path style="opacity:1" fill="#e0fde4" d="M 167.5,77.5 C 169.5,77.5 171.5,77.5 173.5,77.5C 173.5,98.1667 173.5,118.833 173.5,139.5C 167.994,140.21 162.66,141.543 157.5,143.5C 158.914,141.946 160.581,140.612 162.5,139.5C 160.955,138.548 159.288,138.215 157.5,138.5C 159.371,137.203 161.371,136.203 163.5,135.5C 164.833,135.5 166.167,135.5 167.5,135.5C 167.586,136.496 167.252,137.329 166.5,138C 168.473,138.495 170.473,138.662 172.5,138.5C 172.5,118.5 172.5,98.5 172.5,78.5C 168.966,78.0317 165.966,79.0317 163.5,81.5C 164.949,82.1719 166.282,82.8386 167.5,83.5C 163.058,83.7315 159.058,85.0648 155.5,87.5C 153.708,87.366 152.042,87.6993 150.5,88.5C 153.041,86.2017 156.041,84.3684 159.5,83C 156.843,82.8253 154.176,82.9919 151.5,83.5C 152.306,82.2719 153.306,81.2719 154.5,80.5C 158.897,79.6992 163.231,78.6992 167.5,77.5 Z"/></g>
<g><path style="opacity:1" fill="#c4f7c9" d="M 91.5,120.5 C 90.1667,120.5 88.8333,120.5 87.5,120.5C 87.5,125.5 87.5,130.5 87.5,135.5C 86.5119,130.36 86.1786,125.026 86.5,119.5C 88.4147,119.216 90.0813,119.549 91.5,120.5 Z"/></g>
<g><path style="opacity:1" fill="#49be4b" d="M 111.5,116.5 C 112.167,116.5 112.833,116.5 113.5,116.5C 114.391,117.11 115.391,117.443 116.5,117.5C 116.833,118.5 117.5,119.167 118.5,119.5C 118.427,121.027 119.094,122.027 120.5,122.5C 121.906,122.973 122.573,123.973 122.5,125.5C 122.719,126.675 122.386,127.675 121.5,128.5C 120.378,127.37 119.044,126.703 117.5,126.5C 114.32,124.745 111.32,122.745 108.5,120.5C 110.604,120.799 112.604,120.466 114.5,119.5C 113.23,118.712 112.23,117.712 111.5,116.5 Z"/></g>
<g><path style="opacity:1" fill="#56b45b" d="M 91.5,120.5 C 91.8333,120.5 92.1667,120.5 92.5,120.5C 92.5,120.833 92.5,121.167 92.5,121.5C 91.1667,121.5 89.8333,121.5 88.5,121.5C 88.1818,126.032 88.5151,130.366 89.5,134.5C 89.5,134.833 89.5,135.167 89.5,135.5C 89.1667,135.5 88.8333,135.5 88.5,135.5C 88.1667,135.5 87.8333,135.5 87.5,135.5C 87.5,130.5 87.5,125.5 87.5,120.5C 88.8333,120.5 90.1667,120.5 91.5,120.5 Z"/></g>
<g><path style="opacity:1" fill="#5bc166" d="M 160.5,121.5 C 160.167,122.5 159.5,123.167 158.5,123.5C 156.442,124.933 154.108,125.6 151.5,125.5C 152.903,124.069 154.569,122.902 156.5,122C 157.793,121.51 159.127,121.343 160.5,121.5 Z"/></g>
<g><path style="opacity:1" fill="#47bc4a" d="M 92.5,121.5 C 95.221,121.963 97.8877,122.629 100.5,123.5C 101.791,123.263 102.791,123.596 103.5,124.5C 107.858,127.013 111.858,130.013 115.5,133.5C 112.726,132.277 110.059,130.777 107.5,129C 104.883,128.178 102.216,127.678 99.5,127.5C 99.719,126.325 99.3857,125.325 98.5,124.5C 95.667,123.067 92.667,122.4 89.5,122.5C 89.5,126.5 89.5,130.5 89.5,134.5C 88.5151,130.366 88.1818,126.032 88.5,121.5C 89.8333,121.5 91.1667,121.5 92.5,121.5 Z"/></g>
<g><path style="opacity:1" fill="#52b657" d="M 167.5,135.5 C 166.167,135.5 164.833,135.5 163.5,135.5C 164.209,134.596 165.209,134.263 166.5,134.5C 166.5,130.167 166.5,125.833 166.5,121.5C 164.833,121.5 163.167,121.5 161.5,121.5C 163.214,120.262 165.214,119.595 167.5,119.5C 167.5,124.833 167.5,130.167 167.5,135.5 Z"/></g>
<g><path style="opacity:1" fill="#ddfbdd" d="M 103.5,119.5 C 105.216,119.629 106.883,119.962 108.5,120.5C 111.32,122.745 114.32,124.745 117.5,126.5C 118.833,128.167 120.167,129.833 121.5,131.5C 120.417,131.461 119.417,131.127 118.5,130.5C 117.614,131.325 117.281,132.325 117.5,133.5C 117.167,133.5 116.833,133.5 116.5,133.5C 116.167,133.5 115.833,133.5 115.5,133.5C 111.858,130.013 107.858,127.013 103.5,124.5C 105.949,125.057 108.282,125.057 110.5,124.5C 107.846,123.032 105.513,121.365 103.5,119.5 Z"/></g>
<g><path style="opacity:1" fill="#3fbe45" d="M 158.5,123.5 C 157.766,124.708 157.433,126.041 157.5,127.5C 154.327,127.401 151.327,128.068 148.5,129.5C 148.43,131.644 147.93,133.644 147,135.5C 146.517,134.552 146.351,133.552 146.5,132.5C 144.801,132.34 143.134,132.506 141.5,133C 140.055,135.757 138.055,137.924 135.5,139.5C 135.5,138.833 135.5,138.167 135.5,137.5C 139.643,132.076 144.977,128.076 151.5,125.5C 154.108,125.6 156.442,124.933 158.5,123.5 Z"/></g>
<g><path style="opacity:1" fill="#5ebd64" d="M 147.5,111.5 C 143.504,115.599 139.337,119.599 135,123.5C 134.252,125.909 133.085,128.075 131.5,130C 131.57,130.765 131.903,131.265 132.5,131.5C 131.89,132.391 131.557,133.391 131.5,134.5C 129.738,135.262 128.738,136.596 128.5,138.5C 127.833,138.167 127.167,137.833 126.5,137.5C 126.262,135.596 125.262,134.262 123.5,133.5C 123.167,132.5 122.5,131.833 121.5,131.5C 120.167,129.833 118.833,128.167 117.5,126.5C 119.044,126.703 120.378,127.37 121.5,128.5C 122.386,127.675 122.719,126.675 122.5,125.5C 123.933,127.519 125.267,129.686 126.5,132C 127.448,132.483 128.448,132.649 129.5,132.5C 130.038,129.095 131.371,126.095 133.5,123.5C 134.833,121.833 136.167,120.167 137.5,118.5C 140.851,116.141 144.185,113.808 147.5,111.5 Z"/></g>
<g><path style="opacity:1" fill="#b4f2ba" d="M 138.5,127.5 C 136.5,130.167 134.167,132.5 131.5,134.5C 131.557,133.391 131.89,132.391 132.5,131.5C 134.246,129.748 136.246,128.415 138.5,127.5 Z"/></g>
<g><path style="opacity:1" fill="#32c238" d="M 160.5,121.5 C 160.833,121.5 161.167,121.5 161.5,121.5C 163.167,121.5 164.833,121.5 166.5,121.5C 166.5,125.833 166.5,130.167 166.5,134.5C 165.209,134.263 164.209,134.596 163.5,135.5C 159.491,135.858 155.491,136.358 151.5,137C 149.302,139.173 146.969,141.173 144.5,143C 140.489,142.815 138.489,144.648 138.5,148.5C 138.167,149.5 137.5,150.167 136.5,150.5C 135.213,149.129 134.547,147.295 134.5,145C 134.506,142.967 134.839,141.134 135.5,139.5C 138.055,137.924 140.055,135.757 141.5,133C 143.134,132.506 144.801,132.34 146.5,132.5C 146.351,133.552 146.517,134.552 147,135.5C 147.93,133.644 148.43,131.644 148.5,129.5C 151.327,128.068 154.327,127.401 157.5,127.5C 157.433,126.041 157.766,124.708 158.5,123.5C 159.5,123.167 160.167,122.5 160.5,121.5 Z"/></g>
<g><path style="opacity:1" fill="#4bbb53" d="M 182.5,76.5 C 184.265,75.5386 186.265,75.2053 188.5,75.5C 189.6,76.6049 190.267,77.9382 190.5,79.5C 190.831,107.005 190.498,134.338 189.5,161.5C 189.831,133.662 189.498,105.995 188.5,78.5C 187.01,76.7202 185.01,76.0535 182.5,76.5 Z"/></g>
<g><path style="opacity:1" fill="#b1ecaf" d="M 88.5,135.5 C 88.8333,135.5 89.1667,135.5 89.5,135.5C 90.5,135.5 91.5,135.5 92.5,135.5C 93.1667,136.167 93.8333,136.833 94.5,137.5C 93.5,137.5 92.5,137.5 91.5,137.5C 90.2905,137.068 89.2905,136.401 88.5,135.5 Z"/></g>
<g><path style="opacity:1" fill="#4abb4e" d="M 163.5,135.5 C 161.371,136.203 159.371,137.203 157.5,138.5C 154.327,139.17 151.327,140.336 148.5,142C 145.536,144.81 142.202,146.976 138.5,148.5C 138.489,144.648 140.489,142.815 144.5,143C 146.969,141.173 149.302,139.173 151.5,137C 155.491,136.358 159.491,135.858 163.5,135.5 Z"/></g>
<g><path style="opacity:1" fill="#f0fef1" d="M 121.5,131.5 C 122.5,131.833 123.167,132.5 123.5,133.5C 123.461,134.756 123.961,135.756 125,136.5C 125.171,144.344 125.671,152.011 126.5,159.5C 127.26,160.893 127.926,162.393 128.5,164C 128.167,164.833 127.833,165.667 127.5,166.5C 126.591,164.625 125.257,163.292 123.5,162.5C 123.5,161.833 123.167,161.5 122.5,161.5C 121.925,159.589 120.925,157.922 119.5,156.5C 120.568,155.566 121.901,155.232 123.5,155.5C 123.821,150.305 123.487,145.305 122.5,140.5C 122.5,139.833 122.167,139.5 121.5,139.5C 120.559,137.228 119.226,135.228 117.5,133.5C 117.281,132.325 117.614,131.325 118.5,130.5C 119.417,131.127 120.417,131.461 121.5,131.5 Z"/></g>
<g><path style="opacity:1" fill="#f4fef7" d="M 157.5,138.5 C 159.288,138.215 160.955,138.548 162.5,139.5C 160.581,140.612 158.914,141.946 157.5,143.5C 157.167,143.5 156.833,143.5 156.5,143.5C 154.801,143.66 153.134,143.494 151.5,143C 153.747,141.723 155.747,140.223 157.5,138.5 Z"/></g>
<g><path style="opacity:1" fill="#42c348" d="M 190.5,79.5 C 191.664,106.997 191.83,134.664 191,162.5C 190.5,163 190,163.5 189.5,164C 185.129,164.172 180.796,164.672 176.5,165.5C 176.291,166.086 175.957,166.586 175.5,167C 165.666,166.832 156.666,169.165 148.5,174C 144.343,175.661 140.01,176.827 135.5,177.5C 137.455,175.294 139.788,173.628 142.5,172.5C 145.176,171.494 147.843,170.494 150.5,169.5C 154.697,168.458 158.697,167.125 162.5,165.5C 162.833,165.5 163.167,165.5 163.5,165.5C 167.37,164.201 171.37,163.534 175.5,163.5C 179.684,163.149 183.684,162.482 187.5,161.5C 188.167,161.5 188.833,161.5 189.5,161.5C 190.498,134.338 190.831,107.005 190.5,79.5 Z"/></g>
<g><path style="opacity:1" fill="#d7fcd8" d="M 85.5,77.5 C 84.5,77.5 83.5,77.5 82.5,77.5C 82.167,97.8443 82.5004,118.178 83.5,138.5C 86.6499,140.189 89.3165,139.856 91.5,137.5C 92.5,137.5 93.5,137.5 94.5,137.5C 97.3462,137.552 99.6796,138.552 101.5,140.5C 99.2133,140.276 97.0466,139.609 95,138.5C 93.9412,138.63 93.1079,139.13 92.5,140C 95.2565,140.938 97.5899,142.438 99.5,144.5C 93.8916,142.681 88.2249,141.014 82.5,139.5C 81.5003,118.511 81.167,97.5106 81.5,76.5C 83.099,76.2322 84.4324,76.5655 85.5,77.5 Z"/></g>
<g><path style="opacity:1" fill="#52bd53" d="M 92.5,135.5 C 97.8271,136.885 103.16,138.385 108.5,140C 109.252,140.671 109.586,141.504 109.5,142.5C 108.833,142.5 108.167,142.5 107.5,142.5C 105.5,141.833 103.5,141.167 101.5,140.5C 99.6796,138.552 97.3462,137.552 94.5,137.5C 93.8333,136.833 93.1667,136.167 92.5,135.5 Z"/></g>
<g><path style="opacity:1" fill="#32c439" d="M 115.5,133.5 C 115.833,133.5 116.167,133.5 116.5,133.5C 117.013,135.854 118.179,137.854 120,139.5C 120.667,143.167 120.667,146.833 120,150.5C 117.766,146.091 114.266,143.425 109.5,142.5C 109.586,141.504 109.252,140.671 108.5,140C 103.16,138.385 97.8271,136.885 92.5,135.5C 91.5,135.5 90.5,135.5 89.5,135.5C 89.5,135.167 89.5,134.833 89.5,134.5C 89.5,130.5 89.5,126.5 89.5,122.5C 92.667,122.4 95.667,123.067 98.5,124.5C 99.3857,125.325 99.719,126.325 99.5,127.5C 102.216,127.678 104.883,128.178 107.5,129C 110.059,130.777 112.726,132.277 115.5,133.5 Z"/></g>
<g><path style="opacity:1" fill="#b5eebb" d="M 131.5,134.5 C 131.5,135.167 131.5,135.833 131.5,136.5C 130.883,136.611 130.383,136.944 130,137.5C 129.5,145.159 129.334,152.826 129.5,160.5C 129.167,160.5 128.833,160.5 128.5,160.5C 128.5,153.167 128.5,145.833 128.5,138.5C 128.738,136.596 129.738,135.262 131.5,134.5 Z"/></g>
<g><path style="opacity:1" fill="#d2f7d6" d="M 187.5,78.5 C 187.833,78.5 188.167,78.5 188.5,78.5C 189.498,105.995 189.831,133.662 189.5,161.5C 188.833,161.5 188.167,161.5 187.5,161.5C 183.183,161.083 179.183,161.75 175.5,163.5C 171.37,163.534 167.37,164.201 163.5,165.5C 163.5,165.167 163.5,164.833 163.5,164.5C 167.908,162.75 172.575,161.417 177.5,160.5C 176.311,159.571 174.978,159.238 173.5,159.5C 174.833,158.833 176.167,158.167 177.5,157.5C 178.833,157.5 180.167,157.5 181.5,157.5C 181.414,158.496 181.748,159.329 182.5,160C 184.066,160.765 185.399,160.598 186.5,159.5C 187.498,132.672 187.831,105.672 187.5,78.5 Z"/></g>
<g><path style="opacity:1" fill="#d8fedb" d="M 123.5,133.5 C 125.262,134.262 126.262,135.596 126.5,137.5C 126.5,144.833 126.5,152.167 126.5,159.5C 125.671,152.011 125.171,144.344 125,136.5C 123.961,135.756 123.461,134.756 123.5,133.5 Z"/></g>
<g><path style="opacity:1" fill="#53b955" d="M 173.5,139.5 C 172.942,140.79 171.942,141.623 170.5,142C 165.428,142.955 160.428,144.122 155.5,145.5C 155.833,144.833 156.167,144.167 156.5,143.5C 156.833,143.5 157.167,143.5 157.5,143.5C 162.66,141.543 167.994,140.21 173.5,139.5 Z"/></g>
<g><path style="opacity:1" fill="#e6fde6" d="M 101.5,140.5 C 103.5,141.167 105.5,141.833 107.5,142.5C 107.973,143.906 108.973,144.573 110.5,144.5C 114.122,146.787 117.455,149.453 120.5,152.5C 120.56,153.043 120.893,153.376 121.5,153.5C 122.492,149.217 122.826,144.884 122.5,140.5C 123.487,145.305 123.821,150.305 123.5,155.5C 121.901,155.232 120.568,155.566 119.5,156.5C 117.754,154.748 115.754,153.415 113.5,152.5C 111.517,151.529 109.517,150.529 107.5,149.5C 104.813,147.802 102.146,146.135 99.5,144.5C 97.5899,142.438 95.2565,140.938 92.5,140C 93.1079,139.13 93.9412,138.63 95,138.5C 97.0466,139.609 99.2133,140.276 101.5,140.5 Z"/></g>
<g><path style="opacity:1" fill="#f0fef4" d="M 133.5,138.5 C 132.009,141.186 131.343,144.186 131.5,147.5C 131.032,151.063 132.032,154.063 134.5,156.5C 133.5,157.167 132.5,157.833 131.5,158.5C 132.711,159.72 132.711,160.887 131.5,162C 130.184,162.528 129.517,162.028 129.5,160.5C 129.334,152.826 129.5,145.159 130,137.5C 130.383,136.944 130.883,136.611 131.5,136.5C 133.203,135.34 133.869,136.007 133.5,138.5 Z"/></g>
<g><path style="opacity:1" fill="#34c138" d="M 99.5,65.5 C 98.1667,65.5 96.8333,65.5 95.5,65.5C 94.4071,63.4439 92.5738,62.4439 90,62.5C 86.2947,62.0426 82.628,61.3759 79,60.5C 77.6153,60.5143 76.4486,60.8476 75.5,61.5C 75.5,63.1667 75.5,64.8333 75.5,66.5C 85.9576,69.2006 96.2909,72.8673 106.5,77.5C 106.833,77.5 107.167,77.5 107.5,77.5C 107.721,78.7348 108.388,79.7348 109.5,80.5C 108.833,80.8333 108.167,81.1667 107.5,81.5C 102.111,79.2095 96.4441,77.8762 90.5,77.5C 90.3893,76.8826 90.056,76.3826 89.5,76C 85.9085,75.2114 82.4085,75.3781 79,76.5C 78.3333,97.5 78.3333,118.5 79,139.5C 79.8333,140.333 80.6667,141.167 81.5,142C 86.6942,142.131 91.6942,143.131 96.5,145C 99.3881,147.296 98.8881,148.462 95,148.5C 88.845,146.001 82.5117,144.335 76,143.5C 76.1586,120.478 75.3253,97.8112 73.5,75.5C 71.1667,75.5 68.8333,75.5 66.5,75.5C 69.7187,73.0915 73.2187,73.0915 77,75.5C 78.7849,74.7599 80.6183,74.0933 82.5,73.5C 83.3857,72.675 83.719,71.675 83.5,70.5C 79.456,69.666 75.456,69.3327 71.5,69.5C 73.4175,65.7776 74.4175,61.7776 74.5,57.5C 73.325,57.719 72.325,57.3857 71.5,56.5C 73.6297,55.2229 75.2964,55.7229 76.5,58C 79.7603,58.7835 82.9269,58.6168 86,57.5C 88.6401,59.8733 91.8068,61.2066 95.5,61.5C 96.8665,62.84 98.1999,64.1733 99.5,65.5 Z"/></g>
<g><path style="opacity:1" fill="#5ac25e" d="M 75.5,61.5 C 76.4486,60.8476 77.6153,60.5143 79,60.5C 82.628,61.3759 86.2947,62.0426 90,62.5C 92.5738,62.4439 94.4071,63.4439 95.5,65.5C 92.8333,65.1667 90.1667,64.8333 87.5,64.5C 85.6976,63.5418 83.6976,62.8751 81.5,62.5C 79.7354,61.5386 77.7354,61.2053 75.5,61.5 Z"/></g>
<g><path style="opacity:1" fill="#8cd28b" d="M 107.5,142.5 C 108.167,142.5 108.833,142.5 109.5,142.5C 109.833,143.167 110.167,143.833 110.5,144.5C 108.973,144.573 107.973,143.906 107.5,142.5 Z"/></g>
<g><path style="opacity:1" fill="#3fbc43" d="M 181.5,73.5 C 183.527,73.3379 185.527,73.5045 187.5,74C 188.056,74.3826 188.389,74.8826 188.5,75.5C 186.265,75.2053 184.265,75.5386 182.5,76.5C 181.502,99.3273 181.169,122.327 181.5,145.5C 180.833,145.5 180.167,145.5 179.5,145.5C 170.642,145.376 162.642,147.709 155.5,152.5C 154.833,152.833 154.167,153.167 153.5,153.5C 150.386,153.555 148.052,154.888 146.5,157.5C 145.833,157.833 145.167,158.167 144.5,158.5C 142.446,159.609 140.279,160.609 138,161.5C 136.743,161.15 136.409,160.483 137,159.5C 139.716,155.766 143.216,153.266 147.5,152C 150.03,149.967 152.363,147.8 154.5,145.5C 154.833,145.5 155.167,145.5 155.5,145.5C 160.428,144.122 165.428,142.955 170.5,142C 171.942,141.623 172.942,140.79 173.5,139.5C 174.497,119.007 174.831,98.3401 174.5,77.5C 175.497,97.3264 175.83,117.326 175.5,137.5C 175.617,139.484 174.95,141.15 173.5,142.5C 175.396,143.466 177.396,143.799 179.5,143.5C 178.843,119.809 179.51,96.4761 181.5,73.5 Z"/></g>
<g><path style="opacity:1" fill="#59b75d" d="M 179.5,145.5 C 177.5,146.167 175.5,146.833 173.5,147.5C 169.085,147.861 165.085,149.194 161.5,151.5C 160.833,151.5 160.167,151.5 159.5,151.5C 158.167,151.833 156.833,152.167 155.5,152.5C 162.642,147.709 170.642,145.376 179.5,145.5 Z"/></g>
<g><path style="opacity:1" fill="#c5f6cd" d="M 179.5,145.5 C 180.167,145.5 180.833,145.5 181.5,145.5C 181.389,146.117 181.056,146.617 180.5,147C 178.19,147.497 175.857,147.663 173.5,147.5C 175.5,146.833 177.5,146.167 179.5,145.5 Z"/></g>
<g><path style="opacity:1" fill="#47bc49" d="M 73.5,75.5 C 75.3253,97.8112 76.1586,120.478 76,143.5C 82.5117,144.335 88.845,146.001 95,148.5C 98.8881,148.462 99.3881,147.296 96.5,145C 91.6942,143.131 86.6942,142.131 81.5,142C 80.6667,141.167 79.8333,140.333 79,139.5C 78.3333,118.5 78.3333,97.5 79,76.5C 82.4085,75.3781 85.9085,75.2114 89.5,76C 90.056,76.3826 90.3893,76.8826 90.5,77.5C 88.8333,77.5 87.1667,77.5 85.5,77.5C 84.4324,76.5655 83.099,76.2322 81.5,76.5C 81.167,97.5106 81.5003,118.511 82.5,139.5C 88.2249,141.014 93.8916,142.681 99.5,144.5C 102.146,146.135 104.813,147.802 107.5,149.5C 107.712,151.384 108.712,152.717 110.5,153.5C 110,153.833 109.5,154.167 109,154.5C 106.032,152.922 102.865,152.255 99.5,152.5C 97.3155,150.415 94.6489,149.415 91.5,149.5C 89.901,149.768 88.5676,149.434 87.5,148.5C 87.3893,147.883 87.056,147.383 86.5,147C 82.6266,146.164 78.7933,145.331 75,144.5C 74.832,121.996 74.332,99.6629 73.5,77.5C 73.5,77.1667 73.5,76.8333 73.5,76.5C 73.5,76.1667 73.5,75.8333 73.5,75.5 Z"/></g>
<g><path style="opacity:1" fill="#50ba55" d="M 116.5,133.5 C 116.833,133.5 117.167,133.5 117.5,133.5C 119.226,135.228 120.559,137.228 121.5,139.5C 121.818,144.032 121.485,148.366 120.5,152.5C 117.455,149.453 114.122,146.787 110.5,144.5C 110.167,143.833 109.833,143.167 109.5,142.5C 114.266,143.425 117.766,146.091 120,150.5C 120.667,146.833 120.667,143.167 120,139.5C 118.179,137.854 117.013,135.854 116.5,133.5 Z"/></g>
<g><path style="opacity:1" fill="#96d99c" d="M 121.5,139.5 C 122.167,139.5 122.5,139.833 122.5,140.5C 122.826,144.884 122.492,149.217 121.5,153.5C 120.893,153.376 120.56,153.043 120.5,152.5C 121.485,148.366 121.818,144.032 121.5,139.5 Z"/></g>
<g><path style="opacity:1" fill="#5bb55d" d="M 135.5,137.5 C 135.5,138.167 135.5,138.833 135.5,139.5C 134.839,141.134 134.506,142.967 134.5,145C 134.547,147.295 135.213,149.129 136.5,150.5C 135.878,151.627 135.045,152.627 134,153.5C 133.501,148.511 133.334,143.511 133.5,138.5C 134.167,138.167 134.833,137.833 135.5,137.5 Z"/></g>
<g><path style="opacity:1" fill="#6ec36f" d="M 91.5,149.5 C 94.6489,149.415 97.3155,150.415 99.5,152.5C 96.3511,152.585 93.6845,151.585 91.5,149.5 Z"/></g>
<g><path style="opacity:1" fill="#f5fef6" d="M 181.5,145.5 C 181.833,145.5 182.167,145.5 182.5,145.5C 182.5,146.5 182.5,147.5 182.5,148.5C 180.801,148.34 179.134,148.506 177.5,149C 180.065,149.96 182.231,151.46 184,153.5C 184.536,155.615 183.703,156.948 181.5,157.5C 181.5,155.833 181.5,154.167 181.5,152.5C 179.5,152.5 177.5,152.5 175.5,152.5C 173.473,152.338 171.473,152.505 169.5,153C 165.106,154.031 161.106,155.864 157.5,158.5C 156.833,158.833 156.167,159.167 155.5,159.5C 153.716,159.893 152.05,160.559 150.5,161.5C 148.774,161.815 147.107,161.981 145.5,162C 148.116,159.21 150.782,156.71 153.5,154.5C 155.967,154.245 157.967,153.245 159.5,151.5C 160.167,151.5 160.833,151.5 161.5,151.5C 165.767,150.744 169.767,149.411 173.5,147.5C 175.857,147.663 178.19,147.497 180.5,147C 181.056,146.617 181.389,146.117 181.5,145.5 Z"/></g>
<g><path style="opacity:1" fill="#d8fcdd" d="M 173.5,147.5 C 169.767,149.411 165.767,150.744 161.5,151.5C 165.085,149.194 169.085,147.861 173.5,147.5 Z"/></g>
<g><path style="opacity:1" fill="#d2fad4" d="M 73.5,152.5 C 73.5,152.167 73.5,151.833 73.5,151.5C 81.5231,151.337 88.8564,153.337 95.5,157.5C 89.544,155.959 83.544,154.626 77.5,153.5C 76.4324,152.566 75.099,152.232 73.5,152.5 Z"/></g>
<g><path style="opacity:1" fill="#c0f6c3" d="M 113.5,152.5 C 115.754,153.415 117.754,154.748 119.5,156.5C 120.925,157.922 121.925,159.589 122.5,161.5C 120.167,159.5 117.833,157.5 115.5,155.5C 114.833,154.5 114.167,153.5 113.5,152.5 Z"/></g>
<g><path style="opacity:1" fill="#d6fbd6" d="M 175.5,152.5 C 175.5,152.833 175.5,153.167 175.5,153.5C 171.749,154.21 168.082,155.21 164.5,156.5C 162.254,157.455 159.921,158.122 157.5,158.5C 161.106,155.864 165.106,154.031 169.5,153C 171.473,152.505 173.473,152.338 175.5,152.5 Z"/></g>
<g><path style="opacity:1" fill="#5eb862" d="M 153.5,153.5 C 153.5,153.833 153.5,154.167 153.5,154.5C 151.02,155.242 148.687,156.242 146.5,157.5C 148.052,154.888 150.386,153.555 153.5,153.5 Z"/></g>
<g><path style="opacity:1" fill="#b9f2c2" d="M 159.5,151.5 C 157.967,153.245 155.967,154.245 153.5,154.5C 153.5,154.167 153.5,153.833 153.5,153.5C 154.167,153.167 154.833,152.833 155.5,152.5C 156.833,152.167 158.167,151.833 159.5,151.5 Z"/></g>
<g><path style="opacity:1" fill="#4fc053" d="M 107.5,149.5 C 109.517,150.529 111.517,151.529 113.5,152.5C 114.167,153.5 114.833,154.5 115.5,155.5C 113.801,155.34 112.134,155.506 110.5,156C 114.732,159.303 118.399,163.136 121.5,167.5C 121.167,167.5 120.833,167.5 120.5,167.5C 118.098,165.091 115.431,163.091 112.5,161.5C 112.167,160.833 111.833,160.167 111.5,159.5C 111.027,158.094 110.027,157.427 108.5,157.5C 105.272,156.057 102.272,154.39 99.5,152.5C 102.865,152.255 106.032,152.922 109,154.5C 109.5,154.167 110,153.833 110.5,153.5C 108.712,152.717 107.712,151.384 107.5,149.5 Z"/></g>
<g><path style="opacity:1" fill="#80b885" d="M 126.5,137.5 C 127.167,137.833 127.833,138.167 128.5,138.5C 128.5,145.833 128.5,153.167 128.5,160.5C 127.833,160.167 127.167,159.833 126.5,159.5C 126.5,152.167 126.5,144.833 126.5,137.5 Z"/></g>
<g><path style="opacity:1" fill="#e0fce2" d="M 133.5,138.5 C 133.334,143.511 133.501,148.511 134,153.5C 135.045,152.627 135.878,151.627 136.5,150.5C 137.5,150.167 138.167,149.5 138.5,148.5C 142.202,146.976 145.536,144.81 148.5,142C 151.327,140.336 154.327,139.17 157.5,138.5C 155.747,140.223 153.747,141.723 151.5,143C 153.134,143.494 154.801,143.66 156.5,143.5C 156.167,144.167 155.833,144.833 155.5,145.5C 155.167,145.5 154.833,145.5 154.5,145.5C 143.539,150.291 134.872,157.791 128.5,168C 127.833,168.667 127.167,168.667 126.5,168C 125.601,166.348 124.601,164.848 123.5,163.5C 123.5,163.167 123.5,162.833 123.5,162.5C 125.257,163.292 126.591,164.625 127.5,166.5C 127.833,165.667 128.167,164.833 128.5,164C 127.926,162.393 127.26,160.893 126.5,159.5C 127.167,159.833 127.833,160.167 128.5,160.5C 128.833,160.5 129.167,160.5 129.5,160.5C 129.517,162.028 130.184,162.528 131.5,162C 132.711,160.887 132.711,159.72 131.5,158.5C 132.5,157.833 133.5,157.167 134.5,156.5C 132.032,154.063 131.032,151.063 131.5,147.5C 131.343,144.186 132.009,141.186 133.5,138.5 Z"/></g>
<g><path style="opacity:1" fill="#5fbc63" d="M 175.5,152.5 C 177.5,152.5 179.5,152.5 181.5,152.5C 181.5,154.167 181.5,155.833 181.5,157.5C 180.167,157.5 178.833,157.5 177.5,157.5C 173.466,157.505 169.466,157.838 165.5,158.5C 163.302,158.591 162.969,157.925 164.5,156.5C 168.082,155.21 171.749,154.21 175.5,153.5C 175.5,153.167 175.5,152.833 175.5,152.5 Z"/></g>
<g><path style="opacity:1" fill="#3db542" d="M 175.5,153.5 C 177.167,153.5 178.833,153.5 180.5,153.5C 180.5,154.5 180.5,155.5 180.5,156.5C 177.482,156.665 174.482,156.498 171.5,156C 173.066,155.392 174.4,154.558 175.5,153.5 Z"/></g>
<g><path style="opacity:1" fill="#e8fdeb" d="M 77.5,147.5 C 80.8599,147.616 84.1933,147.949 87.5,148.5C 88.5676,149.434 89.901,149.768 91.5,149.5C 93.6845,151.585 96.3511,152.585 99.5,152.5C 102.272,154.39 105.272,156.057 108.5,157.5C 108.973,158.906 109.973,159.573 111.5,159.5C 111.833,160.167 112.167,160.833 112.5,161.5C 109.906,161.318 107.739,160.318 106,158.5C 105.5,159 105,159.5 104.5,160C 106.812,161.314 108.812,162.981 110.5,165C 109.571,166.077 108.904,167.244 108.5,168.5C 106.194,168.007 103.861,167.674 101.5,167.5C 101.167,167.5 100.833,167.5 100.5,167.5C 98.4855,166.076 96.1522,165.41 93.5,165.5C 92.8333,165.5 92.1667,165.5 91.5,165.5C 86.2439,164.062 80.9105,163.062 75.5,162.5C 74.791,161.596 73.791,161.263 72.5,161.5C 72.5,161.167 72.5,160.833 72.5,160.5C 73.2389,160.631 73.9056,160.464 74.5,160C 72.3542,157.643 72.0209,155.143 73.5,152.5C 73.5,154.167 73.5,155.833 73.5,157.5C 74.8333,157.5 76.1667,157.5 77.5,157.5C 78.8333,157.5 80.1667,157.5 81.5,157.5C 83.1016,159.074 85.1016,159.741 87.5,159.5C 88.8333,159.5 90.1667,159.5 91.5,159.5C 95.8346,160.386 100.168,161.719 104.5,163.5C 105.696,163.154 105.696,162.654 104.5,162C 101.516,160.729 98.5156,159.562 95.5,158.5C 95.5,158.167 95.5,157.833 95.5,157.5C 98.0488,157.387 100.382,158.054 102.5,159.5C 103.386,158.675 103.719,157.675 103.5,156.5C 99.0295,155.124 94.6961,153.291 90.5,151C 88.2305,150.242 86.0639,150.409 84,151.5C 82.2302,149.403 80.0635,148.069 77.5,147.5 Z"/></g>
<g><path style="opacity:1" fill="#8cd492" d="M 73.5,152.5 C 75.099,152.232 76.4324,152.566 77.5,153.5C 76.5,153.5 75.5,153.5 74.5,153.5C 74.5,154.5 74.5,155.5 74.5,156.5C 75.791,156.263 76.791,156.596 77.5,157.5C 76.1667,157.5 74.8333,157.5 73.5,157.5C 73.5,155.833 73.5,154.167 73.5,152.5 Z"/></g>
<g><path style="opacity:1" fill="#4eb253" d="M 77.5,153.5 C 83.544,154.626 89.544,155.959 95.5,157.5C 95.5,157.833 95.5,158.167 95.5,158.5C 94.4324,159.434 93.099,159.768 91.5,159.5C 90.1667,159.5 88.8333,159.5 87.5,159.5C 85.8984,157.926 83.8984,157.259 81.5,157.5C 80.1667,157.5 78.8333,157.5 77.5,157.5C 76.791,156.596 75.791,156.263 74.5,156.5C 74.5,155.5 74.5,154.5 74.5,153.5C 75.5,153.5 76.5,153.5 77.5,153.5 Z"/></g>
<g><path style="opacity:1" fill="#bdf2bf" d="M 81.5,157.5 C 83.8984,157.259 85.8984,157.926 87.5,159.5C 85.1016,159.741 83.1016,159.074 81.5,157.5 Z"/></g>
<g><path style="opacity:1" fill="#85d88a" d="M 108.5,157.5 C 110.027,157.427 111.027,158.094 111.5,159.5C 109.973,159.573 108.973,158.906 108.5,157.5 Z"/></g>
<g><path style="opacity:1" fill="#cbf7cf" d="M 177.5,157.5 C 176.167,158.167 174.833,158.833 173.5,159.5C 170.833,159.5 168.167,159.5 165.5,159.5C 165.5,159.167 165.5,158.833 165.5,158.5C 169.466,157.838 173.466,157.505 177.5,157.5 Z"/></g>
<g><path style="opacity:1" fill="#83b885" d="M 95.5,158.5 C 98.5156,159.562 101.516,160.729 104.5,162C 105.696,162.654 105.696,163.154 104.5,163.5C 100.168,161.719 95.8346,160.386 91.5,159.5C 93.099,159.768 94.4324,159.434 95.5,158.5 Z"/></g>
<g><path style="opacity:1" fill="#68af6d" d="M 164.5,156.5 C 162.969,157.925 163.302,158.591 165.5,158.5C 165.5,158.833 165.5,159.167 165.5,159.5C 165.167,159.5 164.833,159.5 164.5,159.5C 161.402,159.756 158.402,160.422 155.5,161.5C 154.494,161.062 154.494,160.396 155.5,159.5C 156.167,159.167 156.833,158.833 157.5,158.5C 159.921,158.122 162.254,157.455 164.5,156.5 Z"/></g>
<g><path style="opacity:1" fill="#f5fef8" d="M 164.5,159.5 C 164.833,159.5 165.167,159.5 165.5,159.5C 168.167,159.5 170.833,159.5 173.5,159.5C 174.978,159.238 176.311,159.571 177.5,160.5C 172.575,161.417 167.908,162.75 163.5,164.5C 161.076,164.808 158.743,164.474 156.5,163.5C 159.341,162.292 162.007,160.959 164.5,159.5 Z"/></g>
<g><path style="opacity:1" fill="#b5f3bc" d="M 187.5,161.5 C 183.684,162.482 179.684,163.149 175.5,163.5C 179.183,161.75 183.183,161.083 187.5,161.5 Z"/></g>
<g><path style="opacity:1" fill="#3dbf40" d="M 115.5,155.5 C 117.833,157.5 120.167,159.5 122.5,161.5C 123.167,161.5 123.5,161.833 123.5,162.5C 123.5,162.833 123.5,163.167 123.5,163.5C 123.843,165.483 123.176,166.817 121.5,167.5C 118.399,163.136 114.732,159.303 110.5,156C 112.134,155.506 113.801,155.34 115.5,155.5 Z"/></g>
<g><path style="opacity:1" fill="#51bb55" d="M 154.5,145.5 C 152.363,147.8 150.03,149.967 147.5,152C 143.216,153.266 139.716,155.766 137,159.5C 136.409,160.483 136.743,161.15 138,161.5C 140.279,160.609 142.446,159.609 144.5,158.5C 143.027,160.395 141.36,162.061 139.5,163.5C 135.065,166.1 131.398,169.6 128.5,174C 127.423,174.47 126.423,174.303 125.5,173.5C 124.585,171.246 123.252,169.246 121.5,167.5C 123.176,166.817 123.843,165.483 123.5,163.5C 124.601,164.848 125.601,166.348 126.5,168C 127.167,168.667 127.833,168.667 128.5,168C 134.872,157.791 143.539,150.291 154.5,145.5 Z"/></g>
<g><path style="opacity:1" fill="#53c357" d="M 65.5,161.5 C 68.728,162.414 72.0613,162.747 75.5,162.5C 80.9105,163.062 86.2439,164.062 91.5,165.5C 90.1667,165.5 88.8333,165.5 87.5,165.5C 80.4527,165.663 73.4527,165.163 66.5,164C 65.7476,163.329 65.4142,162.496 65.5,161.5 Z"/></g>
<g><path style="opacity:1" fill="#b7f4b8" d="M 93.5,165.5 C 96.1522,165.41 98.4855,166.076 100.5,167.5C 97.8478,167.59 95.5145,166.924 93.5,165.5 Z"/></g>
<g><path style="opacity:1" fill="#c7f6c8" d="M 162.5,165.5 C 158.697,167.125 154.697,168.458 150.5,169.5C 150.414,168.504 150.748,167.671 151.5,167C 155.17,166.452 158.837,165.952 162.5,165.5 Z"/></g>
<g><path style="opacity:1" fill="#e7fcea" d="M 153.5,154.5 C 150.782,156.71 148.116,159.21 145.5,162C 147.107,161.981 148.774,161.815 150.5,161.5C 149.4,162.558 148.066,163.392 146.5,164C 145.304,164.654 145.304,165.154 146.5,165.5C 149.601,164.143 152.601,162.81 155.5,161.5C 158.402,160.422 161.402,159.756 164.5,159.5C 162.007,160.959 159.341,162.292 156.5,163.5C 158.743,164.474 161.076,164.808 163.5,164.5C 163.5,164.833 163.5,165.167 163.5,165.5C 163.167,165.5 162.833,165.5 162.5,165.5C 158.837,165.952 155.17,166.452 151.5,167C 150.748,167.671 150.414,168.504 150.5,169.5C 147.843,170.494 145.176,171.494 142.5,172.5C 143.9,170.984 145.233,169.317 146.5,167.5C 144.979,167.12 143.313,166.954 141.5,167C 142.91,166.632 143.91,165.799 144.5,164.5C 142.955,163.548 141.288,163.215 139.5,163.5C 141.36,162.061 143.027,160.395 144.5,158.5C 145.167,158.167 145.833,157.833 146.5,157.5C 148.687,156.242 151.02,155.242 153.5,154.5 Z"/></g>
<g><path style="opacity:1" fill="#9cc49c" d="M 155.5,159.5 C 154.494,160.396 154.494,161.062 155.5,161.5C 152.601,162.81 149.601,164.143 146.5,165.5C 145.304,165.154 145.304,164.654 146.5,164C 148.066,163.392 149.4,162.558 150.5,161.5C 152.05,160.559 153.716,159.893 155.5,159.5 Z"/></g>
<g><path style="opacity:1" fill="#47c14c" d="M 87.5,165.5 C 88.8333,165.5 90.1667,165.5 91.5,165.5C 92.1667,165.5 92.8333,165.5 93.5,165.5C 95.5145,166.924 97.8478,167.59 100.5,167.5C 100.833,167.5 101.167,167.5 101.5,167.5C 105.675,169.753 110.009,171.753 114.5,173.5C 114.973,174.906 115.973,175.573 117.5,175.5C 118.694,176.272 119.694,177.272 120.5,178.5C 116.394,178.039 113.061,176.206 110.5,173C 103.489,171.327 96.4893,169.661 89.5,168C 88.244,167.583 87.5774,166.75 87.5,165.5 Z"/></g>
<g><path style="opacity:1" fill="#f5fdf6" d="M 112.5,161.5 C 115.431,163.091 118.098,165.091 120.5,167.5C 120.447,171.138 122.113,173.138 125.5,173.5C 126.204,175.344 127.537,175.844 129.5,175C 132.669,170.999 136.003,167.166 139.5,163.5C 141.288,163.215 142.955,163.548 144.5,164.5C 143.91,165.799 142.91,166.632 141.5,167C 143.313,166.954 144.979,167.12 146.5,167.5C 145.233,169.317 143.9,170.984 142.5,172.5C 139.788,173.628 137.455,175.294 135.5,177.5C 133.518,178.807 131.518,180.141 129.5,181.5C 127.114,180.627 125.114,179.127 123.5,177C 121.655,175.872 119.655,175.372 117.5,175.5C 117.027,174.094 116.027,173.427 114.5,173.5C 112.909,171.367 110.909,169.701 108.5,168.5C 108.904,167.244 109.571,166.077 110.5,165C 108.812,162.981 106.812,161.314 104.5,160C 105,159.5 105.5,159 106,158.5C 107.739,160.318 109.906,161.318 112.5,161.5 Z"/></g>
<g><path style="opacity:1" fill="#bff4c3" d="M 139.5,163.5 C 136.003,167.166 132.669,170.999 129.5,175C 127.537,175.844 126.204,175.344 125.5,173.5C 126.423,174.303 127.423,174.47 128.5,174C 131.398,169.6 135.065,166.1 139.5,163.5 Z"/></g>
<g><path style="opacity:1" fill="#d3fbd6" d="M 101.5,167.5 C 103.861,167.674 106.194,168.007 108.5,168.5C 110.909,169.701 112.909,171.367 114.5,173.5C 110.009,171.753 105.675,169.753 101.5,167.5 Z"/></g>
<g><path style="opacity:1" fill="#d8fad9" d="M 120.5,167.5 C 120.833,167.5 121.167,167.5 121.5,167.5C 123.252,169.246 124.585,171.246 125.5,173.5C 122.113,173.138 120.447,171.138 120.5,167.5 Z"/></g>
<g><path style="opacity:1" fill="#b0eeb1" d="M 114.5,173.5 C 116.027,173.427 117.027,174.094 117.5,175.5C 115.973,175.573 114.973,174.906 114.5,173.5 Z"/></g>
<g><path style="opacity:1" fill="#e2fee2" d="M 117.5,175.5 C 119.655,175.372 121.655,175.872 123.5,177C 125.114,179.127 127.114,180.627 129.5,181.5C 129.5,182.167 129.5,182.833 129.5,183.5C 128.834,186.358 128.167,189.358 127.5,192.5C 126.833,189.023 126.166,185.689 125.5,182.5C 124.421,180.457 122.754,179.124 120.5,178.5C 119.694,177.272 118.694,176.272 117.5,175.5 Z"/></g>
<g><path style="opacity:1" fill="#4fc255" d="M 135.5,177.5 C 135.114,179.937 133.947,181.937 132,183.5C 131.667,187.167 131.333,190.833 131,194.5C 128.959,195.423 126.792,195.756 124.5,195.5C 124.666,191.486 124.499,187.486 124,183.5C 122.351,182.115 121.184,180.449 120.5,178.5C 122.754,179.124 124.421,180.457 125.5,182.5C 125.5,186.167 125.5,189.833 125.5,193.5C 126.833,193.5 128.167,193.5 129.5,193.5C 129.5,190.167 129.5,186.833 129.5,183.5C 129.5,182.833 129.5,182.167 129.5,181.5C 131.518,180.141 133.518,178.807 135.5,177.5 Z"/></g>
<g><path style="opacity:1" fill="#c2fac4" d="M 125.5,182.5 C 126.166,185.689 126.833,189.023 127.5,192.5C 128.167,189.358 128.834,186.358 129.5,183.5C 129.5,186.833 129.5,190.167 129.5,193.5C 128.167,193.5 126.833,193.5 125.5,193.5C 125.5,189.833 125.5,186.167 125.5,182.5 Z"/></g>
<g><path style="opacity:1" fill="#9d9038" d="M 240.5,219.5 C 239.508,219.328 238.842,219.662 238.5,220.5C 237.833,220.5 237.5,220.167 237.5,219.5C 238.5,216.833 239.5,216.833 240.5,219.5 Z"/></g>
<g><path style="opacity:1" fill="#ca8644" d="M 240.5,219.5 C 241.5,220.167 242.5,220.833 243.5,221.5C 243.414,222.496 243.748,223.329 244.5,224C 243.906,224.464 243.239,224.631 242.5,224.5C 240.833,223.5 239.5,222.167 238.5,220.5C 238.842,219.662 239.508,219.328 240.5,219.5 Z"/></g>
<g><path style="opacity:1" fill="#99a73d" d="M 236.5,219.5 C 236.5,220.167 236.5,220.833 236.5,221.5C 235.5,222.167 234.5,222.833 233.5,223.5C 233.738,221.596 234.738,220.262 236.5,219.5 Z"/></g>
<g><path style="opacity:1" fill="#5b2f05" d="M 236.5,219.5 C 236.833,219.5 237.167,219.5 237.5,219.5C 237.5,220.167 237.833,220.5 238.5,220.5C 239.5,222.167 240.833,223.5 242.5,224.5C 242.672,225.492 242.338,226.158 241.5,226.5C 240.167,224.5 238.5,222.833 236.5,221.5C 236.5,220.833 236.5,220.167 236.5,219.5 Z"/></g>
<g><path style="opacity:1" fill="#7e902d" d="M 243.5,221.5 C 244.695,221.866 245.361,222.699 245.5,224C 244.629,225.364 243.629,226.53 242.5,227.5C 242.167,227.5 241.833,227.5 241.5,227.5C 241.5,227.167 241.5,226.833 241.5,226.5C 242.338,226.158 242.672,225.492 242.5,224.5C 243.239,224.631 243.906,224.464 244.5,224C 243.748,223.329 243.414,222.496 243.5,221.5 Z"/></g>
<g><path style="opacity:1" fill="#68b235" d="M 241.5,227.5 C 241.833,227.5 242.167,227.5 242.5,227.5C 238.199,233.469 233.199,238.802 227.5,243.5C 227.5,242.833 227.5,242.167 227.5,241.5C 227.5,241.167 227.5,240.833 227.5,240.5C 228.167,240.5 228.5,240.167 228.5,239.5C 233.387,236.286 237.721,232.286 241.5,227.5 Z"/></g>
<g><path style="opacity:1" fill="#d89843" d="M 236.5,221.5 C 238.5,222.833 240.167,224.5 241.5,226.5C 241.5,226.833 241.5,227.167 241.5,227.5C 237.721,232.286 233.387,236.286 228.5,239.5C 226.833,237.5 225.167,235.5 223.5,233.5C 226.167,229.5 229.5,226.167 233.5,223.5C 234.5,222.833 235.5,222.167 236.5,221.5 Z"/></g>
<g><path style="opacity:1" fill="#bd5110" d="M 234.5,224.5 C 235.833,224.5 237.167,224.5 238.5,224.5C 237.802,230.373 234.636,234.373 229,236.5C 226.812,235.941 226.146,234.607 227,232.5C 229.705,229.964 232.205,227.297 234.5,224.5 Z"/></g>
<g><path style="opacity:1" fill="#84912a" d="M 221.5,235.5 C 221.5,235.833 221.5,236.167 221.5,236.5C 220.833,237.5 220.167,238.5 219.5,239.5C 219.157,237.517 219.824,236.183 221.5,235.5 Z"/></g>
<g><path style="opacity:1" fill="#d99150" d="M 221.5,236.5 C 221.5,236.167 221.5,235.833 221.5,235.5C 221.833,235.5 222.167,235.5 222.5,235.5C 224.5,236.833 226.167,238.5 227.5,240.5C 227.5,240.833 227.5,241.167 227.5,241.5C 227.167,241.5 226.833,241.5 226.5,241.5C 225.167,239.5 223.5,237.833 221.5,236.5 Z"/></g>
<g><path style="opacity:1" fill="#633608" d="M 223.5,233.5 C 225.167,235.5 226.833,237.5 228.5,239.5C 228.5,240.167 228.167,240.5 227.5,240.5C 226.167,238.5 224.5,236.833 222.5,235.5C 222.328,234.508 222.662,233.842 223.5,233.5 Z"/></g>
<g><path style="opacity:1" fill="#c0601a" d="M 221.5,236.5 C 223.5,237.833 225.167,239.5 226.5,241.5C 225.167,242.167 223.833,242.833 222.5,243.5C 222.167,243.5 221.833,243.5 221.5,243.5C 220.167,243.5 219.5,242.833 219.5,241.5C 219.5,240.833 219.5,240.167 219.5,239.5C 220.167,238.5 220.833,237.5 221.5,236.5 Z"/></g>
<g><path style="opacity:1" fill="#77932a" d="M 218.5,241.5 C 218.5,242.5 218.5,243.5 218.5,244.5C 219.5,244.5 220.5,244.5 221.5,244.5C 220.432,245.434 219.099,245.768 217.5,245.5C 217.232,243.901 217.566,242.568 218.5,241.5 Z"/></g>
<g><path style="opacity:1" fill="#878c28" d="M 226.5,241.5 C 226.833,241.5 227.167,241.5 227.5,241.5C 227.5,242.167 227.5,242.833 227.5,243.5C 225.833,243.5 224.167,243.5 222.5,243.5C 223.833,242.833 225.167,242.167 226.5,241.5 Z"/></g>
<g><path style="opacity:1" fill="#967320" d="M 218.5,241.5 C 218.833,241.5 219.167,241.5 219.5,241.5C 219.5,242.833 220.167,243.5 221.5,243.5C 221.5,243.833 221.5,244.167 221.5,244.5C 220.5,244.5 219.5,244.5 218.5,244.5C 218.5,243.5 218.5,242.5 218.5,241.5 Z"/></g>
</svg>
